PathFileType	4	(X / Y / Z)	Demo_152250_11_September_2019	Demo_152250_11_September_2019.trc
DataRate	CameraRate	NumFrames	NumMarkers	Units	OrigDataRate	OrigDataStartFrame	OrigNumFrames
50	50	23	25	m	50	50	2190
Frame#	Time		SpineBase		SpineMid		Neck		Head		ShoulderLeft		ElbowLeft		WristLeft		HandLeft		ShoulderRight		ElbowRight		WristRight		HandRight		HipLeft		KneeLeft		AnkleLeft		FootLeft		HipRight		KneeRight		AnkleRight		FootRight		SpineShoulder		HandTipLeft		LeftThumb		HandTipRight		ThumbRight		
X1	Y1	Z1	X2	Y2	Z2	X3	Y3	Z3	X4	Y4	Z4	X5	Y5	Z5	X6	Y6	Z6	X7	Y7	Z7	X8	Y8	Z8	X9	Y9	Z9	X10	Y10	Z10	X11	Y11	Z11	X12	Y12	Z12	X13	Y13	Z13	X14	Y14	Z14	X15	Y15	Z15	X16	Y16	Z16	X17	Y17	Z17	X18	Y18	Z18	X19	Y19	Z19	X20	Y20	Z20	X21	Y21	Z21	X22	Y22	Z22	X23	Y23	Z23	X24	Y24	Z24	X25	Y25	Z25	
1	25.852	0.150	0.788	1.881	0.151	1.075	1.841	0.151	1.353	1.789	0.162	1.487	1.742	0.004	1.257	1.771	-0.048	1.022	1.758	-0.068	0.841	1.688	-0.062	0.782	1.676	0.322	1.230	1.802	0.449	1.036	1.850	0.590	0.899	1.849	0.650	0.837	1.848	0.072	0.797	1.841	0.004	0.488	1.828	-0.034	0.137	1.879	-0.024	0.125	1.804	0.224	0.786	1.857	0.245	0.500	1.946	0.203	0.246	2.075	0.217	0.191	1.972	0.151	1.285	1.804	-0.072	0.712	1.651	-0.097	0.774	1.666	0.671	0.768	1.841	0.639	0.799	1.865
2	25.868	0.150	0.788	1.881	0.151	1.075	1.841	0.151	1.353	1.789	0.162	1.487	1.742	0.004	1.257	1.771	-0.048	1.022	1.758	-0.068	0.841	1.688	-0.062	0.782	1.676	0.322	1.230	1.802	0.449	1.036	1.850	0.590	0.899	1.849	0.650	0.837	1.848	0.072	0.797	1.841	0.004	0.488	1.828	-0.034	0.137	1.879	-0.024	0.125	1.804	0.224	0.786	1.857	0.245	0.500	1.946	0.203	0.246	2.075	0.217	0.191	1.972	0.151	1.285	1.804	-0.072	0.712	1.651	-0.097	0.774	1.666	0.671	0.768	1.841	0.639	0.799	1.865
3	25.885	0.162	0.789	1.890	0.160	1.076	1.849	0.158	1.354	1.796	0.172	1.488	1.749	0.009	1.258	1.775	-0.035	1.022	1.767	-0.049	0.848	1.695	-0.037	0.784	1.684	0.330	1.231	1.813	0.458	1.038	1.865	0.599	0.904	1.861	0.667	0.843	1.865	0.083	0.797	1.849	0.009	0.489	1.832	-0.031	0.138	1.880	-0.022	0.126	1.803	0.235	0.788	1.866	0.250	0.502	1.957	0.204	0.246	2.076	0.217	0.195	1.971	0.159	1.286	1.811	-0.039	0.715	1.657	-0.062	0.770	1.656	0.692	0.777	1.856	0.656	0.809	1.878
4	25.902	0.162	0.789	1.890	0.160	1.076	1.849	0.158	1.354	1.796	0.172	1.488	1.749	0.009	1.258	1.775	-0.035	1.022	1.767	-0.049	0.848	1.695	-0.037	0.784	1.684	0.330	1.231	1.813	0.458	1.038	1.865	0.599	0.904	1.861	0.667	0.843	1.865	0.083	0.797	1.849	0.009	0.489	1.832	-0.031	0.138	1.880	-0.022	0.126	1.803	0.235	0.788	1.866	0.250	0.502	1.957	0.204	0.246	2.076	0.217	0.195	1.971	0.159	1.286	1.811	-0.039	0.715	1.657	-0.062	0.770	1.656	0.692	0.777	1.856	0.656	0.809	1.878
5	25.918	0.172	0.789	1.898	0.168	1.076	1.856	0.164	1.354	1.802	0.180	1.489	1.756	0.017	1.259	1.782	-0.025	1.022	1.776	-0.035	0.854	1.703	-0.019	0.786	1.694	0.337	1.232	1.823	0.463	1.040	1.879	0.609	0.908	1.876	0.680	0.846	1.882	0.093	0.797	1.856	0.015	0.490	1.838	-0.028	0.138	1.882	-0.020	0.127	1.803	0.246	0.789	1.874	0.253	0.503	1.965	0.205	0.246	2.077	0.218	0.197	1.971	0.165	1.286	1.818	-0.016	0.719	1.663	-0.040	0.768	1.657	0.708	0.782	1.870	0.670	0.816	1.892
6	25.935	0.172	0.789	1.898	0.168	1.076	1.856	0.164	1.354	1.802	0.180	1.489	1.756	0.017	1.259	1.782	-0.025	1.022	1.776	-0.035	0.854	1.703	-0.019	0.786	1.694	0.337	1.232	1.823	0.463	1.040	1.879	0.609	0.908	1.876	0.680	0.846	1.882	0.093	0.797	1.856	0.015	0.490	1.838	-0.028	0.138	1.882	-0.020	0.127	1.803	0.246	0.789	1.874	0.253	0.503	1.965	0.205	0.246	2.077	0.218	0.197	1.971	0.165	1.286	1.818	-0.016	0.719	1.663	-0.040	0.768	1.657	0.708	0.782	1.870	0.670	0.816	1.892
7	25.952	0.182	0.790	1.905	0.176	1.077	1.863	0.169	1.355	1.809	0.187	1.489	1.762	0.025	1.260	1.789	-0.015	1.022	1.784	-0.022	0.858	1.712	-0.004	0.787	1.705	0.341	1.233	1.831	0.466	1.041	1.891	0.614	0.909	1.890	0.686	0.847	1.896	0.103	0.797	1.863	0.021	0.491	1.845	-0.025	0.140	1.886	-0.018	0.129	1.802	0.256	0.791	1.881	0.256	0.505	1.972	0.206	0.247	2.080	0.218	0.199	1.971	0.171	1.287	1.824	0.006	0.720	1.673	-0.023	0.764	1.676	0.718	0.786	1.881	0.676	0.822	1.903
8	25.969	0.182	0.790	1.905	0.176	1.077	1.863	0.169	1.355	1.809	0.187	1.489	1.762	0.025	1.260	1.789	-0.015	1.022	1.784	-0.022	0.858	1.712	-0.004	0.787	1.705	0.341	1.233	1.831	0.466	1.041	1.891	0.614	0.909	1.890	0.686	0.847	1.896	0.103	0.797	1.863	0.021	0.491	1.845	-0.025	0.140	1.886	-0.018	0.129	1.802	0.256	0.791	1.881	0.256	0.505	1.972	0.206	0.247	2.080	0.218	0.199	1.971	0.171	1.287	1.824	0.006	0.720	1.673	-0.023	0.764	1.676	0.718	0.786	1.881	0.676	0.822	1.903
9	25.985	0.191	0.792	1.911	0.182	1.079	1.869	0.174	1.356	1.815	0.193	1.490	1.767	0.031	1.260	1.796	-0.006	1.022	1.792	-0.011	0.860	1.722	0.009	0.787	1.719	0.345	1.234	1.837	0.467	1.043	1.902	0.615	0.909	1.905	0.682	0.845	1.916	0.112	0.797	1.869	0.028	0.492	1.855	-0.023	0.140	1.890	-0.015	0.130	1.805	0.264	0.793	1.886	0.257	0.506	1.976	0.208	0.248	2.082	0.218	0.200	1.971	0.176	1.288	1.830	0.023	0.720	1.687	-0.011	0.764	1.701	0.723	0.788	1.895	0.679	0.822	1.918
10	26.002	0.191	0.792	1.911	0.182	1.079	1.869	0.174	1.356	1.815	0.193	1.490	1.767	0.031	1.260	1.796	-0.006	1.022	1.792	-0.011	0.860	1.722	0.009	0.787	1.719	0.345	1.234	1.837	0.467	1.043	1.902	0.615	0.909	1.905	0.682	0.845	1.916	0.112	0.797	1.869	0.028	0.492	1.855	-0.023	0.140	1.890	-0.015	0.130	1.805	0.264	0.793	1.886	0.257	0.506	1.976	0.208	0.248	2.082	0.218	0.200	1.971	0.176	1.288	1.830	0.023	0.720	1.687	-0.011	0.764	1.701	0.723	0.788	1.895	0.679	0.822	1.918
11	26.019	0.191	0.792	1.911	0.182	1.079	1.869	0.174	1.356	1.815	0.193	1.490	1.767	0.031	1.260	1.796	-0.006	1.022	1.792	-0.011	0.860	1.722	0.009	0.787	1.719	0.345	1.234	1.837	0.467	1.043	1.902	0.615	0.909	1.905	0.682	0.845	1.916	0.112	0.797	1.869	0.028	0.492	1.855	-0.023	0.140	1.890	-0.015	0.130	1.805	0.264	0.793	1.886	0.257	0.506	1.976	0.208	0.248	2.082	0.218	0.200	1.971	0.176	1.288	1.830	0.023	0.720	1.687	-0.011	0.764	1.701	0.723	0.788	1.895	0.679	0.822	1.918
12	26.035	0.191	0.792	1.911	0.182	1.079	1.869	0.174	1.356	1.815	0.193	1.490	1.767	0.031	1.260	1.796	-0.006	1.022	1.792	-0.011	0.860	1.722	0.009	0.787	1.719	0.345	1.234	1.837	0.467	1.043	1.902	0.615	0.909	1.905	0.682	0.845	1.916	0.112	0.797	1.869	0.028	0.492	1.855	-0.023	0.140	1.890	-0.015	0.130	1.805	0.264	0.793	1.886	0.257	0.506	1.976	0.208	0.248	2.082	0.218	0.200	1.971	0.176	1.288	1.830	0.023	0.720	1.687	-0.011	0.764	1.701	0.723	0.788	1.895	0.679	0.822	1.918
13	26.052	0.191	0.792	1.911	0.182	1.079	1.869	0.174	1.356	1.815	0.193	1.490	1.767	0.031	1.260	1.796	-0.006	1.022	1.792	-0.011	0.860	1.722	0.009	0.787	1.719	0.345	1.234	1.837	0.467	1.043	1.902	0.615	0.909	1.905	0.682	0.845	1.916	0.112	0.797	1.869	0.028	0.492	1.855	-0.023	0.140	1.890	-0.015	0.130	1.805	0.264	0.793	1.886	0.257	0.506	1.976	0.208	0.248	2.082	0.218	0.200	1.971	0.176	1.288	1.830	0.023	0.720	1.687	-0.011	0.764	1.701	0.723	0.788	1.895	0.679	0.822	1.918
14	26.069	0.191	0.792	1.911	0.182	1.079	1.869	0.174	1.356	1.815	0.193	1.490	1.767	0.031	1.260	1.796	-0.006	1.022	1.792	-0.011	0.860	1.722	0.009	0.787	1.719	0.345	1.234	1.837	0.467	1.043	1.902	0.615	0.909	1.905	0.682	0.845	1.916	0.112	0.797	1.869	0.028	0.492	1.855	-0.023	0.140	1.890	-0.015	0.130	1.805	0.264	0.793	1.886	0.257	0.506	1.976	0.208	0.248	2.082	0.218	0.200	1.971	0.176	1.288	1.830	0.023	0.720	1.687	-0.011	0.764	1.701	0.723	0.788	1.895	0.679	0.822	1.918
15	26.085	0.211	0.795	1.927	0.197	1.082	1.884	0.185	1.360	1.829	0.200	1.491	1.776	0.041	1.261	1.810	0.017	1.022	1.822	0.013	0.857	1.766	0.028	0.784	1.773	0.349	1.238	1.845	0.460	1.044	1.917	0.586	0.879	1.950	0.622	0.803	1.962	0.133	0.799	1.888	0.043	0.496	1.873	-0.020	0.140	1.898	-0.011	0.132	1.810	0.281	0.797	1.900	0.259	0.506	1.980	0.210	0.249	2.084	0.219	0.202	1.971	0.188	1.292	1.845	0.049	0.713	1.753	0.013	0.760	1.738	0.663	0.748	1.956	0.615	0.803	1.965
16	26.102	0.211	0.795	1.927	0.197	1.082	1.884	0.185	1.360	1.829	0.200	1.491	1.776	0.041	1.261	1.810	0.017	1.022	1.822	0.013	0.857	1.766	0.028	0.784	1.773	0.349	1.238	1.845	0.460	1.044	1.917	0.586	0.879	1.950	0.622	0.803	1.962	0.133	0.799	1.888	0.043	0.496	1.873	-0.020	0.140	1.898	-0.011	0.132	1.810	0.281	0.797	1.900	0.259	0.506	1.980	0.210	0.249	2.084	0.219	0.202	1.971	0.188	1.292	1.845	0.049	0.713	1.753	0.013	0.760	1.738	0.663	0.748	1.956	0.615	0.803	1.965
17	26.119	0.219	0.796	1.934	0.205	1.084	1.893	0.191	1.362	1.838	0.206	1.492	1.783	0.045	1.262	1.818	0.026	1.023	1.836	0.023	0.854	1.797	0.032	0.783	1.815	0.353	1.240	1.851	0.455	1.043	1.926	0.552	0.855	1.978	0.573	0.777	1.989	0.142	0.800	1.896	0.051	0.497	1.882	-0.017	0.141	1.904	-0.008	0.134	1.814	0.289	0.799	1.906	0.261	0.507	1.982	0.212	0.252	2.086	0.219	0.204	1.971	0.195	1.293	1.854	0.054	0.709	1.794	0.013	0.769	1.798	0.600	0.716	1.997	0.565	0.757	2.003
18	26.136	0.219	0.796	1.934	0.205	1.084	1.893	0.191	1.362	1.838	0.206	1.492	1.783	0.045	1.262	1.818	0.026	1.023	1.836	0.023	0.854	1.797	0.032	0.783	1.815	0.353	1.240	1.851	0.455	1.043	1.926	0.552	0.855	1.978	0.573	0.777	1.989	0.142	0.800	1.896	0.051	0.497	1.882	-0.017	0.141	1.904	-0.008	0.134	1.814	0.289	0.799	1.906	0.261	0.507	1.982	0.212	0.252	2.086	0.219	0.204	1.971	0.195	1.293	1.854	0.054	0.709	1.794	0.013	0.769	1.798	0.600	0.716	1.997	0.565	0.757	2.003
19	26.152	0.225	0.797	1.939	0.210	1.084	1.898	0.195	1.363	1.844	0.210	1.493	1.788	0.048	1.262	1.822	0.031	1.023	1.844	0.025	0.852	1.815	0.030	0.781	1.838	0.355	1.242	1.855	0.449	1.041	1.931	0.529	0.842	1.989	0.528	0.754	2.002	0.148	0.800	1.902	0.056	0.498	1.888	-0.015	0.142	1.907	-0.005	0.135	1.820	0.294	0.800	1.911	0.262	0.507	1.984	0.214	0.253	2.087	0.220	0.205	1.971	0.199	1.294	1.859	0.053	0.705	1.821	0.017	0.768	1.816	0.556	0.695	2.018	0.529	0.743	2.020
20	26.169	0.225	0.797	1.939	0.210	1.084	1.898	0.195	1.363	1.844	0.210	1.493	1.788	0.048	1.262	1.822	0.031	1.023	1.844	0.025	0.852	1.815	0.030	0.781	1.838	0.355	1.242	1.855	0.449	1.041	1.931	0.529	0.842	1.989	0.528	0.754	2.002	0.148	0.800	1.902	0.056	0.498	1.888	-0.015	0.142	1.907	-0.005	0.135	1.820	0.294	0.800	1.911	0.262	0.507	1.984	0.214	0.253	2.087	0.220	0.205	1.971	0.199	1.294	1.859	0.053	0.705	1.821	0.017	0.768	1.816	0.556	0.695	2.018	0.529	0.743	2.020
21	26.186	0.228	0.797	1.942	0.213	1.085	1.901	0.197	1.363	1.847	0.212	1.494	1.792	0.050	1.262	1.825	0.035	1.023	1.850	0.023	0.850	1.829	0.024	0.780	1.854	0.356	1.243	1.858	0.441	1.039	1.934	0.512	0.833	1.992	0.501	0.744	2.004	0.152	0.800	1.905	0.059	0.498	1.892	-0.014	0.142	1.910	-0.002	0.135	1.824	0.297	0.801	1.913	0.263	0.506	1.986	0.215	0.255	2.089	0.220	0.206	1.971	0.201	1.295	1.863	0.045	0.703	1.843	0.019	0.765	1.828	0.527	0.684	2.025	0.506	0.731	2.028
22	26.202	0.228	0.797	1.942	0.213	1.085	1.901	0.197	1.363	1.847	0.212	1.494	1.792	0.050	1.262	1.825	0.035	1.023	1.850	0.023	0.850	1.829	0.024	0.780	1.854	0.356	1.243	1.858	0.441	1.039	1.934	0.512	0.833	1.992	0.501	0.744	2.004	0.152	0.800	1.905	0.059	0.498	1.892	-0.014	0.142	1.910	-0.002	0.135	1.824	0.297	0.801	1.913	0.263	0.506	1.986	0.215	0.255	2.089	0.220	0.206	1.971	0.201	1.295	1.863	0.045	0.703	1.843	0.019	0.765	1.828	0.527	0.684	2.025	0.506	0.731	2.028
23	26.219	0.230	0.797	1.945	0.215	1.085	1.903	0.199	1.364	1.850	0.215	1.494	1.796	0.052	1.262	1.827	0.036	1.024	1.855	0.015	0.847	1.841	0.010	0.776	1.869	0.357	1.244	1.860	0.433	1.036	1.934	0.497	0.828	1.989	0.484	0.742	1.997	0.154	0.800	1.908	0.061	0.498	1.895	-0.013	0.142	1.911	-0.001	0.135	1.827	0.299	0.801	1.916	0.265	0.506	1.987	0.210	0.224	2.102	0.221	0.191	2.027	0.203	1.295	1.865	0.029	0.699	1.864	0.020	0.764	1.837	0.508	0.678	2.023	0.479	0.747	2.019
